<svg id="colaborador" xmlns="http://www.w3.org/2000/svg" width="57.027" height="165.531" viewBox="0 0 57.027 165.531">
  <path id="Caminho_476" data-name="Caminho 476" d="M827.241,321.862l-1.2,8.129s-5.26,10.52-1.913,21.28l4.3-2.63s3.347-12.911,3.347-13.868,1.435-12.194,1.435-12.194Z" transform="translate(-810.144 -273.053)" fill="#ffb9b9"/>
  <path id="Caminho_477" data-name="Caminho 477" d="M828.613,430.862l-5.738,3.826,2.869,14.107s.717,19.128.478,19.845-4.543,29.888-4.543,29.888,5.021,2.391,9.564.956c0,0,4.543-21.519,4.543-27.736l5.26-21.758,8.129,24.867s.478,16.737,1.435,22.236.956,6.217.956,6.217,7.651,2.152,9.564,0c0,0-.956-28.214-1.674-31.083l-1.674-34.191Z" transform="translate(-809.125 -355.991)" fill="#2f2e41"/>
  <path id="Caminho_478" data-name="Caminho 478" d="M783.641,713.443s-.478-.717-1.913,1.2-5.978,5.5-5.978,5.5-12.433,8.847-3.108,9.325,11-4.3,11-4.3,7.89-1.435,8.129-3.108-.956-8.369-.956-8.369Z" transform="translate(-769.175 -570.906)" fill="#2f2e41"/>
  <path id="Caminho_479" data-name="Caminho 479" d="M944.6,731.862s-1.674,5.738-1.2,8.129-.956,11.238,5.738,10.52,4.543-8.369,4.543-8.369l-2.152-9.8Z" transform="translate(-901.681 -585.022)" fill="#2f2e41"/>
  <ellipse id="Elipse_22" data-name="Elipse 22" cx="7.89" cy="7.89" rx="7.89" ry="7.89" transform="translate(25.585 5.89)" fill="#ffb9b9"/>
  <path id="Caminho_480" data-name="Caminho 480" d="M889.679,189.058s2.391,8.369.478,11.477,12.911.478,13.868-2.391c0,0-4.782-5.26-4.065-10.281Z" transform="translate(-860.866 -171.093)" fill="#ffb9b9"/>
  <path id="Caminho_481" data-name="Caminho 481" d="M852.291,229.913s6.545.443,9.728-3.126l11.791,5.039-5.021,27.736s10.042,23.432.956,25.584-35.387,0-34.192-7.89,5.978-17.454,5.978-17.454,1.2-10.52-1.435-15.3-.956-10.281-.956-10.281l10.525-6.973S850.139,229.913,852.291,229.913Z" transform="translate(-819.652 -200.711)" fill="#575a89"/>
  <path id="Caminho_483" data-name="Caminho 483" d="M968.79,318.862l-.956,8.369s1.2,11-2.869,19.606l-1.435,4.3s-1.435,12.433-5.26,12.433,0-14.107,0-14.107l1.913-14.107s1.435-5.5.478-7.89-1.2-7.412-1.2-7.412Z" transform="translate(-911.763 -270.771)" fill="#ffb9b9"/>
  <path id="Caminho_484" data-name="Caminho 484" d="M876.394,126.346a31.55,31.55,0,0,1,3.536-.351,5.323,5.323,0,0,1,2.527.339,5,5,0,0,1,2.253,3.037,12.045,12.045,0,0,0,1.528,3.549c1.324-1.382,1.588-3.436,1.785-5.339a7.013,7.013,0,0,0-.357-3.961,6.261,6.261,0,0,0-1.647-1.84c-3.041-2.531-6.9-4.523-10.82-3.954l-.092.6a10.8,10.8,0,0,0-2,.126l.14,1.5-2.08.132-.08,1.563-2.1.073a2.438,2.438,0,0,0,.734,1.585,2.963,2.963,0,0,1-1.08.488c.351,1.358.691,2.719,1.054,4.074.267,1,.219,1.88,1.29,1.393.815-.371,1.367-1.55,2.191-2.037A9.022,9.022,0,0,1,876.394,126.346Z" transform="translate(-844.857 -117.728)" fill="#2f2e41"/>
</svg>
