<svg xmlns="http://www.w3.org/2000/svg" width="629.968" height="688.768" viewBox="0 0 629.968 688.768"><path d="M778.095,81.44V608.562a23.7,23.7,0,0,1-23.689,23.672h-214a23.647,23.647,0,0,1-23.689-23.672V81.44a23.687,23.687,0,0,1,23.691-23.689h32.022v4.107a19.507,19.507,0,0,0,19.5,19.509H700.775a19.345,19.345,0,0,0,11.564-3.806,18.121,18.121,0,0,0,1.919-1.61,19.45,19.45,0,0,0,6.018-14.093V57.752h34.13A23.682,23.682,0,0,1,778.1,81.44Z" transform="translate(-269.46 -32.347)" fill="#f2f2f2"/><circle cx="46.353" cy="46.353" r="46.353" transform="translate(337.645 308.551)"/><path d="M764.758,657.56H517.08a29.322,29.322,0,0,1-15.759-4.538,26.464,26.464,0,0,1-12.472-22.211V53.279c0-14.76,12.664-26.768,28.23-26.768h58.208v5.312c0,11.338,9.76,20.562,21.757,20.562H679.1a22.353,22.353,0,0,0,12.917-4.022,20.475,20.475,0,0,0,8.841-16.539V26.511h63.9c15.566,0,28.23,12.008,28.23,26.768V630.811a26.148,26.148,0,0,1-9.94,20.368A29.093,29.093,0,0,1,764.758,657.56ZM517.079,28.137c-14.669,0-26.6,11.278-26.6,25.141V630.811a24.843,24.843,0,0,0,11.72,20.841,27.691,27.691,0,0,0,14.883,4.282H764.758a27.46,27.46,0,0,0,17.267-6.02,24.531,24.531,0,0,0,9.337-19.1V53.279c0-13.863-11.934-25.141-26.6-25.141H702.486v3.686a22.1,22.1,0,0,1-9.54,17.876A23.962,23.962,0,0,1,679.1,54.012H597.045c-12.894,0-23.383-9.953-23.383-22.188V28.138Z" transform="translate(-264.254 -26.511)" fill="#3f3d56"/><path d="M738.968,522.926H595.943V368.936H738.968Zm-141.191-1.834H737.134V370.77H597.777Z" transform="translate(-284.258 -90.474)" fill="#3f3d56"/><rect width="93.899" height="1.834" transform="translate(329.629 145.888)" fill="#3f3d56"/><rect width="93.899" height="1.834" transform="translate(329.629 170.848)" fill="#3f3d56"/><rect width="93.899" height="1.834" transform="translate(329.629 195.808)" fill="#3f3d56"/><path d="M276.252,786.547l-.873-.327c-.192-.072-19.28-7.386-28.222-23.968s-4.564-36.55-4.518-36.749l.206-.909.872.327c.192.072,19.279,7.385,28.222,23.968s4.564,36.55,4.518,36.749ZM248.589,761.48c7.56,14.021,22.644,21.208,26.466,22.848.727-4.1,3.005-20.661-4.548-34.668s-22.642-21.2-26.466-22.848C243.315,730.911,241.036,747.474,248.589,761.48Z" transform="translate(-218.056 -156.908)" fill="#3f3d56"/><path d="M248.6,762.195c16.069,9.668,22.258,28.871,22.258,28.871s-19.865,3.528-35.934-6.139-22.258-28.871-22.258-28.871S232.53,752.527,248.6,762.195Z" transform="translate(-212.665 -162.667)"/><path d="M707.75,771.213l1.49,24.572,8.191,8.936,17.126-12.658-11.169-25.317Z" transform="translate(-132.202 -143.223)" fill="#a0616a"/><path d="M938.981,823.675s.331-4.963.91-14.4c0,0,25.151-4.964,23.662,12.162s-14.148,23.083-14.148,23.083-5.957-.745-5.212,5.212-21.594,18.615-32.018,6.7l6.41-37.6s6.993,4.84,9.227,2.606S938.981,823.675,938.981,823.675Z" transform="translate(-343.328 -172.602)" fill="#2f2e41"/><path d="M675.25,201.334,696.1,245.266,658.615,255.5l-7.193-40.015Z" transform="translate(-121.681 -37.608)" fill="#a0616a"/><circle cx="29.04" cy="29.04" r="29.04" transform="translate(502.936 130.219)" fill="#a0616a"/><path d="M876.695,224.647c-2.637-.157-5.212.734-7.83,1.081-9.369,1.244-19.115-5.555-21.184-14.776a11.338,11.338,0,0,0-1.083-3.53c-1.442-2.354-4.726-2.8-7.433-2.262s-5.273,1.808-8.03,1.953c-4.257.223-8.343-2.4-10.612-6.006a20.366,20.366,0,0,1-2.6-12.3l2.041,2.142a10.364,10.364,0,0,0,.924-5.633,6.536,6.536,0,0,1,6.191,1.584c1.8.191.441-3.337,1.778-4.557a3.092,3.092,0,0,1,2.176-.407c3.828.037,6.924-2.891,9.941-5.248a42.241,42.241,0,0,1,17.841-8.138c4.322-.843,8.919-.979,13.018.631,3.366,1.322,6.184,3.729,8.791,6.236,6.418,6.171,12.1,13.422,14.77,21.915a36.892,36.892,0,0,1,.177,21.392c-1.076,3.631-4.318,16.066-9.065,16.356C880.537,235.444,884.118,225.09,876.695,224.647Z" transform="translate(-325.708 -52.928)" fill="#2f2e41"/><path d="M626.494,771.213,625,795.785l-8.191,8.936-17.126-12.658,11.169-25.317Z" transform="translate(-112.017 -143.223)" fill="#a0616a"/><path d="M850.723,271.689s3.723-27.551,39.464-18.615S929.652,270.2,929.652,270.2s.745,7.446,2.979,8.191,8.191,4.468,5.212,6.7,13.4,24.572,13.4,24.572,9.68,5.957,3.723,34.252-12.658,69.249-12.658,69.249,2.234,13.4-.745,20.849,2.978,12.658,2.978,15.637-1.489,17.871-1.489,17.871-101.267-3.723-115.414,0S850.723,271.689,850.723,271.689Z" transform="translate(-326.938 -68.498)" fill="#555"/><path d="M937.444,508.57s5.957,14.148,0,37.231S930,626.963,930,626.963s0,112.436-5.212,118.393-3.723,15.637-3.723,15.637H898.724s.745-11.914-2.234-18.615-2.234-78.929-2.234-78.929L881.6,562.182l-25.317,96.055s-9.68,71.482-13.4,74.461,0,14.892,0,14.892a36.675,36.675,0,0,1-22.338-3.723V731.953s-11.169-4.468-7.446-20.849,2.234-194.343,13.4-202.534S937.444,508.57,937.444,508.57Z" transform="translate(-324.679 -115.876)" fill="#2f2e41"/><path d="M814.935,823.675s-.331-4.963-.91-14.4c0,0-25.151-4.964-23.662,12.162s14.148,23.083,14.148,23.083,5.957-.745,5.212,5.212,21.594,18.615,32.018,6.7l-6.41-37.6s-6.993,4.84-9.227,2.606S814.935,823.675,814.935,823.675Z" transform="translate(-320.563 -172.602)" fill="#2f2e41"/><path d="M804.652,512.611l-2.234,10.424s-26.806,42.443-4.468,46.91S818.8,528.992,818.8,528.992l2.234-9.68Z" transform="translate(-320.331 -117.311)" fill="#a0616a"/><path d="M834.068,283.23s15.637-10.424,23.083,2.234,14.892,41.7,14.892,41.7l-9.68,70.738-35.741,81.907-21.594-8.191s3.723-10.424,2.234-14.892,5.957-15.637,5.957-15.637l7.446-58.079S823.643,283.975,834.068,283.23Z" transform="translate(-323.314 -73.711)" fill="#555"/><path d="M654.2,396.366l-24.572,88.609-11.169-4.468Z" transform="translate(-115.523 -74.038)" opacity="0.1"/><path d="M929.225,303.2a73.037,73.037,0,0,0,17.973-2.165l-.365-1.443c-13.907,3.519-29.632,2.653-46.739-2.577-15.22-4.653-29.6-12.106-43.5-19.313l-.685,1.322c13.964,7.238,28.4,14.722,43.753,19.415A101.376,101.376,0,0,0,929.225,303.2Z" transform="translate(-332.818 -73.432)" opacity="0.1"/><rect width="141.498" height="152.07" transform="translate(217.29 407.762)"/><path d="M424.575,221.225c-9.534-22.495-33.8-26.743-33.8-26.743s-23.367-6.234-42.882,23.455c-18.189,27.672-41.645,53.6-11.9,64.644l7.858-16.5.943,18.992a121.1,121.1,0,0,0,13.1,1.987c33,3.352,64.1,8.925,64.675-3C423.328,268.206,433.748,242.87,424.575,221.225Z" transform="translate(-233.05 -57.785)" fill="#2f2e41"/><path d="M321.311,449.015l-2.123,54.14s-22.293,43.525-4.246,42.463,15.924-42.463,15.924-42.463l6.369-50.955Z" transform="translate(-230.452 -105.432)" fill="#ffb8b8"/><path d="M469.884,437.267l6.369,54.14s19.108,28.662,4.246,38.216-14.862-33.97-14.862-33.97l-15.924-55.2Z" transform="translate(-256.944 -103.238)" fill="#ffb8b8"/><path d="M433.2,558.843,414.1,633.153s-8.493,29.724-20.17,44.586l-4.246,8.493-16.985-2.123,11.677-47.771,7.431-88.11Z" transform="translate(-242.557 -123.964)" fill="#ffb8b8"/><path d="M433.2,558.843,414.1,633.153s-8.493,29.724-20.17,44.586l-4.246,8.493-16.985-2.123,11.677-47.771,7.431-88.11Z" transform="translate(-242.557 -123.964)" opacity="0.1"/><path d="M359.713,700.746l29.032,6.722-11.965,28.206s4.863,16.886.231,25.828-3.964,25.167-3.964,25.167l-6.292-.991s-15.276,28.759-33.326,20.543,1.148-27.76,1.148-27.76,15.607-30.856,17.589-43.44S359.713,700.746,359.713,700.746Z" transform="translate(-233.778 -152.454)" fill="#2f2e41"/><path d="M359.713,700.746l29.032,6.722-11.965,28.206s4.863,16.886.231,25.828-3.964,25.167-3.964,25.167l-6.292-.991s-15.276,28.759-33.326,20.543,1.148-27.76,1.148-27.76,15.607-30.856,17.589-43.44S359.713,700.746,359.713,700.746Z" transform="translate(-233.778 -152.454)" fill="#555"/><path d="M337.448,541.7l15.923,79.618s-5.308,39.278,1.062,63.694l6.369,23.354h21.231V622.379s1.062-70.064-2.123-75.372S337.448,541.7,337.448,541.7Z" transform="translate(-235.973 -122.745)" fill="#ffb8b8"/><path d="M390.669,736.207l-29.724,2.123,7.431,29.724s-7.431,15.924-4.246,25.478,0,25.478,0,25.478H370.5s10.616,30.786,29.724,25.478,3.185-27.6,3.185-27.6-10.616-32.909-10.616-45.648S390.669,736.207,390.669,736.207Z" transform="translate(-240.362 -159.077)" fill="#555"/><circle cx="28.662" cy="28.662" r="28.662" transform="translate(129.076 152.501)" fill="#ffb8b8"/><path d="M381.349,262.994s2.123,36.093-4.246,38.217,32.909,0,32.909,0-5.308-22.293,0-28.663S381.349,262.994,381.349,262.994Z" transform="translate(-243.25 -70.685)" fill="#ffb8b8"/><path d="M406.192,302.592s-27.6-2.123-32.909,0-20.17,12.739-20.17,12.739l7.431,66.879,60.51,12.739,9.554-13.8,9.554-20.17L435.916,335.5l-1.062-14.862Z" transform="translate(-238.899 -77.905)" fill="#d0cde1"/><path d="M341.953,323.7s-13.8,3.185-14.862,13.8-1.062,37.155,0,41.4,0,6.369-1.062,7.431-3.185-1.062-1.062,2.123,2.123,3.185,1.062,6.369-4.246-1.062-2.123,4.246,3.185,6.369,2.123,7.431-4.246,25.478-4.246,25.478l18.047,3.185,18.047-62.633Z" transform="translate(-233.047 -82.023)" fill="#d0cde1"/><path d="M446.7,323.7a11.314,11.314,0,0,1,9.554,6.369c3.185,6.369,11.677,47.771,10.616,50.955s-3.185-1.062-1.062,5.308,0,5.308,1.062,9.554-4.246,0,0,4.246,6.369,5.308,4.246,7.431-5.308-2.123-2.123,2.123,3.185,10.616,3.185,10.616L446.7,425.607l-7.431-59.448Z" transform="translate(-254.993 -82.023)" fill="#d0cde1"/><path d="M337.41,320.913l5.215-2.608a4.464,4.464,0,0,1,6.007,2.032l23.949,48.973L399.12,386.3l19.108-8.493s13.8-21.231,9.554-31.847c-2.879-7.2-6.252-18.272-8.125-24.657a1.907,1.907,0,0,1,2.891-2.119l3.618,2.412a5.293,5.293,0,0,1,2.247,3.332l7.861,38.016-10.616,22.293v21.231l7.431,114.65s-27.6-4.246-55.2-9.554-62.633-9.554-62.633-9.554,18.047-93.419,32.909-109.342c0,0,0-11.677,2.123-12.739s4.246-8.493,4.246-8.493l-19.229-44.766a4.464,4.464,0,0,1,2.1-5.755Z" transform="translate(-231.828 -80.928)" fill="#2f2e41"/><path d="M213.99,188.006l-24.321-12.74-33.587,5.212-6.949,30.691,17.3-.665,4.833-11.276v11.091l7.982-.307,4.633-17.952,2.9,19.11,28.376-.579Z" transform="translate(-27.857 -32.738)" fill="#2f2e41"/><ellipse cx="3.185" cy="5.573" rx="3.185" ry="5.573" transform="translate(125.36 175.59)" fill="#ffb8b8"/><path d="M489.367,431.563H466.229V408.425h-.89v23.138H442.2v.89h23.138v23.137h.89V432.454h23.138Z" transform="translate(-82.6 -76.291)" fill="#fff"/><rect width="93.899" height="1.834" transform="translate(240.99 453.28)" fill="#f2f2f2"/><rect width="93.899" height="1.834" transform="translate(240.99 478.241)" fill="#f2f2f2"/><rect width="93.899" height="1.834" transform="translate(240.99 503.2)" fill="#f2f2f2"/></svg>