<svg xmlns="http://www.w3.org/2000/svg" xmlns:xlink="http://www.w3.org/1999/xlink" width="754.462" height="588.553" viewBox="0 0 754.462 588.553"><defs><linearGradient id="a" x1="0.5" y1="1" x2="0.5" gradientUnits="objectBoundingBox"><stop offset="0" stop-color="gray" stop-opacity="0.251"/><stop offset="0.54" stop-color="gray" stop-opacity="0.122"/><stop offset="1" stop-color="gray" stop-opacity="0.102"/></linearGradient><linearGradient id="b" x1="0.5" x2="0.5" y2="0" xlink:href="#a"/></defs><g transform="translate(0.004)"><g transform="translate(228.326 161.555)" opacity="0.5"><path d="M634.661,649.468H314.42v-427H583.836l50.826,52.285Z" transform="translate(-314.42 -222.47)" fill="url(#a)"/></g><path d="M633.852,644.028H319.42V226.47H585.444l48.408,47.2Z" transform="translate(-87.464 -62.01)" fill="#f2f2f2"/><g transform="translate(495.555 167.365)" opacity="0.5"><path d="M682.41,276.946V230.47h4.183l46.65,46.476Z" transform="translate(-682.41 -230.47)" fill="url(#b)"/></g><path d="M685.41,273.672v-47.2l48.655,47.2Z" transform="translate(-187.676 -62.01)" fill="#fafafa"/><g transform="translate(262.456 239.257)" opacity="0.5"><circle cx="24.69" cy="24.69" r="24.69" fill="url(#a)"/></g><circle cx="23.238" cy="23.238" r="23.238" transform="translate(263.909 240.709)" fill="#00c5e5"/><g transform="translate(262.456 339.471)" opacity="0.5"><circle cx="24.69" cy="24.69" r="24.69" fill="url(#a)"/></g><circle cx="23.238" cy="23.238" r="23.238" transform="translate(263.909 340.923)" fill="#c6f2f9"/><g transform="translate(262.456 439.685)" opacity="0.5"><circle cx="24.69" cy="24.69" r="24.69" fill="url(#a)"/></g><circle cx="23.238" cy="23.238" r="23.238" transform="translate(263.909 441.137)" fill="#c6f2f9"/><rect width="62.452" height="4.357" transform="translate(344.516 255.233)" fill="rgba(0,0,0,0.25)"/><rect width="103.119" height="4.357" transform="translate(344.516 261.769)" fill="rgba(0,0,0,0.25)"/><rect width="95.857" height="4.357" transform="translate(344.516 268.305)" fill="rgba(0,0,0,0.25)"/><rect width="62.452" height="4.357" transform="translate(344.516 355.447)" fill="rgba(0,0,0,0.25)"/><rect width="103.119" height="4.357" transform="translate(344.516 361.983)" fill="rgba(0,0,0,0.25)"/><rect width="95.857" height="4.357" transform="translate(344.516 368.518)" fill="rgba(0,0,0,0.25)"/><rect width="62.452" height="4.357" transform="translate(344.516 455.661)" fill="rgba(0,0,0,0.25)"/><rect width="103.119" height="4.357" transform="translate(344.516 462.197)" fill="rgba(0,0,0,0.25)"/><rect width="95.857" height="4.357" transform="translate(344.516 468.732)" fill="rgba(0,0,0,0.25)"/><path d="M382.051,357.637l8.714,7.988L403.11,347.47l4.357,3.631-16.7,21.786-12.345-13.8Z" transform="translate(-103.618 -95.142)" fill="#fff"/><path d="M382.051,494.637l8.714,7.988L403.11,484.47l4.357,3.631-16.7,21.786-12.345-13.8Z" transform="translate(-103.618 -132.654)" fill="#fff"/><path d="M382.051,631.637l8.714,7.988L403.11,621.47l4.357,3.631-16.7,21.786-12.345-13.8Z" transform="translate(-103.618 -170.166)" fill="#fff"/><g transform="translate(608.456 202.606)" opacity="0.5"><rect width="103.148" height="110.025" rx="41.07" fill="url(#a)"/></g><rect width="97.309" height="103.794" rx="41.07" transform="translate(611.092 205.083)"/><path d="M985.777,408.136v-3.682a23.238,23.238,0,1,0-11.619,0v3.682a22.6,22.6,0,0,0-16.7,21.742v10.167h45.024V429.878A22.6,22.6,0,0,0,985.777,408.136Z" transform="translate(-320.468 -130.725)" fill="#fff"/><circle cx="24.69" cy="24.69" r="24.69" transform="translate(634.809 221.451)" fill="#fff"/><path d="M1016.093,386.06s-1.387,26.615,9.506,29.52c0,0-22.512,12.345-26.869-14.524Z" transform="translate(-331.969 -138.212)" fill="#fff"/><path d="M951.236,386.06s1.387,26.615-9.506,29.52c0,0,22.512,12.345,26.869-14.524Z" transform="translate(-316.361 -138.212)" fill="#fff"/><g transform="translate(341.219)" opacity="0.5"><rect width="103.148" height="110.025" rx="41.07" fill="url(#a)"/></g><rect width="97.309" height="103.794" rx="41.07" transform="translate(344.138 3.115)"/><path d="M645.729,92.55a68.781,68.781,0,0,0-4.176-18.111c-2.36-5.766-6.151-11.06-11.437-14.342a13.072,13.072,0,0,0-6.318-2.179c-4.132-.145-7.952,2.643-10.08,6.187a28.869,28.869,0,0,0-1.881,3.827,8.91,8.91,0,0,0-7.392,8.162,22.715,22.715,0,0,0,3.224,42.881v3.871a22.8,22.8,0,0,0-17.029,21.982v10.53h45.408V144.821a22.8,22.8,0,0,0-17.029-21.982v-3.863a22.715,22.715,0,0,0,17.029-21.989v-.16l2.556,5.686c2.433,5.417,4.923,11.227,3.972,17.094C647.246,111.62,646.861,101.729,645.729,92.55Z" transform="translate(-220.229 -48.361)" fill="#fff"/><g transform="translate(79.065 358.737)" opacity="0.5"><rect width="103.148" height="110.025" rx="41.07" fill="url(#a)"/></g><rect width="97.309" height="103.794" rx="41.07" transform="translate(81.984 361.852)"/><path d="M233.718,591.2a17.363,17.363,0,0,1-1.91-9,12.04,12.04,0,0,1,3.965-8.17c2.607-2.222,6.144-3.006,9.557-3.282s6.877-.109,10.239-.77a21.4,21.4,0,0,0,13.667-9.266,28.778,28.778,0,0,1-.073,7.879,9.838,9.838,0,0,1-4.081,6.536c2.716-1.256,2.426,1.692,1.83,3.457,1.351,1.627,4.619,1.9,4.786,4a13.246,13.246,0,0,1-.683,6.223c-.821,1.939.058,5.359-2.041,5.512" transform="translate(-121.968 -186.034)" fill="#fff" stroke="#fff" stroke-miterlimit="10" stroke-width="1"/><path d="M279.78,579.16s11.946,1.038,3.442,18.779" transform="translate(-135.111 -191.085)" fill="#fff"/><path d="M256.777,624.136v-3.682a23.238,23.238,0,1,0-11.619,0v3.682a22.6,22.6,0,0,0-16.7,21.742v10.167h45.024V645.878A22.6,22.6,0,0,0,256.777,624.136Z" transform="translate(-120.859 -189.869)" fill="#fff"/><line y1="4.357" transform="translate(129.927 323.495)" fill="none" stroke="#cfd8dc" stroke-miterlimit="10" stroke-width="2"/><line y1="239.642" transform="translate(129.927 75.139)" fill="none" stroke="#cfd8dc" stroke-miterlimit="10" stroke-width="2" stroke-dasharray="12 12"/><path d="M178.91,95.827V91.47h4.357" transform="translate(-48.99 -25.046)" fill="none" stroke="#cfd8dc" stroke-miterlimit="10" stroke-width="2"/><line x2="167.909" transform="translate(142.89 66.424)" fill="none" stroke="#cfd8dc" stroke-miterlimit="10" stroke-width="2" stroke-dasharray="11.86 11.86"/><line x2="4.357" transform="translate(315.105 66.424)" fill="none" stroke="#cfd8dc" stroke-miterlimit="10" stroke-width="2"/><line x2="4.357" transform="translate(473.414 66.424)" fill="none" stroke="#cfd8dc" stroke-miterlimit="10" stroke-width="2"/><line x2="185.323" transform="translate(486.384 66.424)" fill="none" stroke="#cfd8dc" stroke-miterlimit="10" stroke-width="2" stroke-dasharray="11.87 11.87"/><path d="M930.91,91.47h4.357v4.357" transform="translate(-254.897 -25.046)" fill="none" stroke="#cfd8dc" stroke-miterlimit="10" stroke-width="2"/><line y2="87.803" transform="translate(680.377 80.026)" fill="none" stroke="#cfd8dc" stroke-miterlimit="10" stroke-width="2" stroke-dasharray="12.73 12.73"/><line y2="4.357" transform="translate(680.377 172.448)" fill="none" stroke="#cfd8dc" stroke-miterlimit="10" stroke-width="2"/><rect width="7.349" height="7.349" transform="translate(3.671 392.539) rotate(30)" fill="#69f0ae" opacity="0.3"/><rect width="7.349" height="7.349" transform="translate(511.279 30.895) rotate(30)" fill="#69f0ae" opacity="0.3"/><rect width="7.349" height="7.349" transform="translate(161.983 499.293) rotate(30)" fill="#4d8af0" opacity="0.3"/><rect width="7.349" height="7.349" transform="translate(575.184 143.457) rotate(30)" fill="#4d8af0" opacity="0.3"/><circle cx="4.357" cy="4.357" r="4.357" transform="translate(599.771 480.351)" fill="#69f0ae" opacity="0.3"/><circle cx="4.357" cy="4.357" r="4.357" transform="translate(185.844 186.245)" fill="#69f0ae" opacity="0.3"/><circle cx="4.357" cy="4.357" r="4.357" transform="translate(630.27 383.042)" fill="#ff5252" opacity="0.3"/><path d="M1113.276,89.3h0a1.488,1.488,0,0,0,1.452,1.031h0a1.489,1.489,0,0,1,.879,2.694h0a1.489,1.489,0,0,0-.545,1.663h0a1.489,1.489,0,0,1-2.295,1.663h0a1.488,1.488,0,0,0-1.75,0h0a1.489,1.489,0,0,1-2.295-1.663h0a1.488,1.488,0,0,0-.545-1.663h0a1.489,1.489,0,0,1,.879-2.694h0a1.489,1.489,0,0,0,1.452-1.031h0a1.489,1.489,0,0,1,2.767,0Z" transform="translate(-361.769 -56.697)" fill="#ff5252" opacity="0.3"/><path d="M348.276,556.3h0a1.489,1.489,0,0,0,1.452,1.031h0a1.489,1.489,0,0,1,.879,2.694h0a1.489,1.489,0,0,0-.545,1.663h0a1.489,1.489,0,0,1-2.295,1.663h0a1.489,1.489,0,0,0-1.75,0h0a1.489,1.489,0,0,1-2.295-1.663h0a1.489,1.489,0,0,0-.545-1.663h0a1.489,1.489,0,0,1,.879-2.694h0a1.489,1.489,0,0,0,1.452-1.031h0a1.489,1.489,0,0,1,2.767,0Z" transform="translate(-152.302 -184.568)" fill="#ff5252" opacity="0.3"/><path d="M214.276,120.3h0a1.489,1.489,0,0,0,1.452,1.031h0a1.489,1.489,0,0,1,.879,2.694h0a1.489,1.489,0,0,0-.545,1.663h0a1.489,1.489,0,0,1-2.295,1.663h0a1.489,1.489,0,0,0-1.75,0h0a1.489,1.489,0,0,1-2.295-1.663h0a1.489,1.489,0,0,0-.545-1.663h0a1.489,1.489,0,0,1,.879-2.694h0a1.489,1.489,0,0,0,1.452-1.031h0a1.489,1.489,0,0,1,2.767,0Z" transform="translate(-115.611 -65.186)" fill="#ff5252" opacity="0.3"/><path d="M509.276,53.3h0a1.489,1.489,0,0,0,1.452,1.031h0a1.489,1.489,0,0,1,.879,2.694h0a1.489,1.489,0,0,0-.545,1.663h0a1.489,1.489,0,0,1-2.295,1.663h0a1.489,1.489,0,0,0-1.75,0h0a1.489,1.489,0,0,1-2.295-1.663h0a1.489,1.489,0,0,0-.545-1.663h0a1.489,1.489,0,0,1,.879-2.694h0a1.489,1.489,0,0,0,1.452-1.031h0a1.489,1.489,0,0,1,2.767,0Z" transform="translate(-196.386 -46.84)" fill="#4d8af0" opacity="0.3"/><path d="M1066.276,331.3h0a1.489,1.489,0,0,0,1.452,1.031h0a1.489,1.489,0,0,1,.878,2.694h0a1.489,1.489,0,0,0-.545,1.663h0a1.489,1.489,0,0,1-2.295,1.663h0a1.489,1.489,0,0,0-1.75,0h0a1.489,1.489,0,0,1-2.295-1.663h0a1.489,1.489,0,0,0-.544-1.663h0a1.489,1.489,0,0,1,.879-2.694h0a1.489,1.489,0,0,0,1.452-1.031h0a1.489,1.489,0,0,1,2.767,0Z" transform="translate(-348.899 -122.96)" fill="#4d8af0" opacity="0.3"/></g></svg>