<svg xmlns="http://www.w3.org/2000/svg" width="63.249" height="165.729" viewBox="0 0 63.249 165.729"><path d="M915.526,525.632l-1.255,4.769s-4.518,10.04,0,10.542,4.769-13.052,4.769-13.052Z" transform="translate(-899.96 -449.506)" fill="#a0616a"/><path d="M929.3,388.632l-9.036,35.642a22.051,22.051,0,0,1,5.271,2.259Z" transform="translate(-905.952 -346.893)" fill="#d0cde1"/><path d="M951.961,496.611l2.51,38.905s6.024,15.311,5.773,29.869c0,0-2.259,5.773-.5,6.777s2.761,1.757,1.757,2.51-1.757,2.51-1,3.012,1,1.255.753,1.255h-7.53s1.506-3.765-.753-4.769-1-3.514-1-3.514l-16.817-49.2-13.3,45.18s2.259,1.506.5,2.259-2.51-.753-1.757.753a2.337,2.337,0,0,1-.251,2.51c0,.251-7.53-.753-7.53-.753s3.765-3.263,2.008-4.016-2.51-1.506-2.008-2.008a47.545,47.545,0,0,0,2.51-5.271s1-18.072,1.255-18.825,0-4.267,0-6.024-.251-8.785.5-10.542,1.506-23.343,5.522-25.853S951.961,496.611,951.961,496.611Z" transform="translate(-900.251 -427.764)" fill="#2f2e41"/><path d="M883.081,790.926s5.02,10.291,1.506,11.546-8.032.251-9.036,1.757-12.048,3.263-12.3-.5S875.3,792.934,875.3,792.934l1.6-2.58Z" transform="translate(-863.248 -647.783)" fill="#2f2e41"/><path d="M1045.078,820.926s5.02,10.291,1.506,11.546-8.032.251-9.036,1.757-12.048,3.263-12.3-.5,12.048-10.793,12.048-10.793l1.6-2.58Z" transform="translate(-984.584 -670.253)" fill="#2f2e41"/><ellipse cx="8.283" cy="8.283" rx="8.283" ry="8.283" transform="translate(28.995 4.967)" fill="#a0616a"/><path d="M918.043,275.246l-1,7.279-7.53,5.773-2.008-2.761V276Z" transform="translate(-875.118 -257.603)" fill="#a0616a"/><path d="M958.052,323.64s7.781.753,11.8-2.008l8.032,47.439s-28.363,2.259-29.618.753V355.015l5.02-24.1Z" transform="translate(-926.924 -296.71)" fill="#3f3d56"/><path d="M1009.511,312.6l2.7,2.268s11.044,1.757,10.291,4.769l-3.012,35.642,1,12.048s-8.534-2.259-15.06,0-1.341-48.544-1.341-48.544S1010.076,313.34,1009.511,312.6Z" transform="translate(-967.277 -289.942)" fill="#d0cde1"/><path d="M952.566,323.541s-8.032,5.8-9.036,9.561-4.267,43.423-4.267,43.423,1.506-.753,2.259.5S953.821,325.526,952.566,323.541Z" transform="translate(-920.183 -298.14)" fill="#d0cde1"/><path d="M1048.718,527.389l-1.8,5.871s-.46,10.946-6.484,9.44,1.757-14.307,1.757-14.307l1.757-2.761Z" transform="translate(-994.248 -449.506)" fill="#a0616a"/><path d="M976.9,235.232a3.959,3.959,0,0,1-.552-2.794,8.467,8.467,0,0,0,.241-2.518,24.923,24.923,0,0,1,1.448-3.656c.724-1.311.379-1.862,2.656-2.276s1.345-3.38,7.346-.172a1.76,1.76,0,0,0,1.828.69c1.242-.241,1.69,1.483,1.69,1.483s.828-.483,1.138.207,2.524-.414,2.524,4.242a19.277,19.277,0,0,1-2.519,8.815s.185-7.832-3.919-8.625-8.519-3.1-9.588-.138A22.611,22.611,0,0,1,976.9,235.232Z" transform="translate(-947.898 -222.343)" fill="#2f2e41"/><path d="M1059.531,333.475s4.016-1,5.271,5.773,2.761,26.1,2.761,26.1l-6.024,20.331s-6.024-3.263-7.279-2.761L1059,365.272l-3.988-17.991S1058.527,333.475,1059.531,333.475Z" transform="translate(-1006.316 -305.542)" fill="#d0cde1"/></svg>