<svg xmlns="http://www.w3.org/2000/svg" width="61.599" height="165.7" viewBox="0 0 61.599 165.7"><path d="M457.846,439.851s-2.975,13.792,1.082,13.521,2.163-12.71,2.163-12.71Z" transform="translate(-456.494 -355.613)" fill="#a0616a"/><path d="M488.986,712.269l1.893,10.006,4.327-.541-1.352-10.817Z" transform="translate(-471.408 -562.319)" fill="#a0616a"/><path d="M593.779,670.811l1.082,7.3h5.679l-1.082-6.76Z" transform="translate(-554.297 -530.595)" fill="#a0616a"/><path d="M506.181,393.181s-4.6,8.924-2.975,31.1,1.622,43.268,1.622,43.268l11.628-.811L519.7,411.57l12.71,47.865,8.383-.811-2.163-46.783L531.871,389.4Z" transform="translate(-492.931 -315.703)" fill="#2f2e41"/><path d="M506.268,770.894s.811-2.434-.541-2.434h-2.974s-3.245,5.949-5.138,6.49-7.842,5.679-2.163,6.22,14.332-2.434,14.332-3.516-.811-5.679-.811-5.679Z" transform="translate(-485.175 -615.535)" fill="#2f2e41"/><path d="M648.013,731.74s-4.971-1.375-4.649-.552-.76,3.257-.76,3.257-2.7,15.414,5.409,14.062,2.163-12.98,2.163-12.98l-1.2-4.6Z" transform="translate(-603.124 -585.846)" fill="#2f2e41"/><circle cx="8.113" cy="8.113" r="8.113" transform="translate(14.062 2.841)" fill="#a0616a"/><path d="M535.569,109.948s1.352,7.842.541,9.465,6.49,4.868,6.49,4.868l3.786-9.194v-5.138Z" transform="translate(-518.803 -94.668)" fill="#a0616a"/><path d="M522.5,133.468s-2.462.362-3.529-1.441-3.5,12.529-3.5,12.529,1.082,18.93-.27,23.256-1.082,5.949-.541,6.761,2.163-.27.811,1.893-1.352.811-1.352,2.975-.541,10.006-.541,10.006l29.206-2.163L528.989,128.06S524.392,133.739,522.5,133.468Z" transform="translate(-501.406 -108.994)" fill="#3f3d56"/><path d="M574.687,131.036s11.087,1.623,11.628,4.056,11.358,70.039,5.679,73.555-24.068,6.22-24.879,2.7-5.138-75.177,2.7-83.29Z" transform="translate(-542.237 -108.995)" fill="#d0cde1"/><path d="M628.479,442.506h-2.271s.7-8.209,0-8.966c0,0-6.346-.7-12.751,6.288a9.7,9.7,0,0,1,9.374-8.035c2.65-.13,4.182.923,5.039,2.416C629.688,437.373,628.479,442.506,628.479,442.506Z" transform="translate(-580.411 -349.231)" fill="#3f3d56"/><path d="M676.73,449.157h-2.271s.7-8.209,0-8.966l1.662.67C677.939,444.024,676.73,449.157,676.73,449.157Z" transform="translate(-628.662 -355.882)" opacity="0.15"/><path d="M609.637,457.461l-3.144,5.356h1.456S608.182,458.858,609.637,457.461Z" transform="translate(-574.902 -369.542)" opacity="0.15"/><path d="M597.4,501.107a5.56,5.56,0,0,1-2.183,4.687s-28.937,6.87-32.139,6.288a4.562,4.562,0,0,1-1.137-.373c-2.552-1.211-4.161-4.518-4.161-4.518s-.048-.855-.12-2.247c-.137-2.693-.36-7.4-.483-11.83A81.186,81.186,0,0,1,557.285,483c.64-4.134,5.065-4.483,5.065-4.483l29.461-1.281a10.335,10.335,0,0,1,2.865.375c3.185.957,2.725,3.41,2.725,3.41S597.284,497.963,597.4,501.107Z" transform="translate(-535.825 -385.183)" fill="#575a89"/><path d="M594.676,477.61c-1.805.562-6.146,1.8-7.7,1.255-1.98-.7-17.292-.233-22.882.408s-3.61,15.779-3.61,15.779l-3.31-1.938A81.2,81.2,0,0,1,557.285,483c.64-4.134,5.065-4.483,5.065-4.483l29.461-1.281A10.335,10.335,0,0,1,594.676,477.61Z" transform="translate(-535.825 -385.182)" fill="#3f3d56"/><path d="M632.861,463.554s-2.8-15.675,2.353-17.823l.674.006s-1.63,2.154-.99,6.113.291,12.984.291,12.984S633.211,466,632.861,463.554Z" transform="translate(-595.157 -360.264)" fill="#2f2e41"/><path d="M645.49,436.775a6.634,6.634,0,0,1,8.733-2.212c5.648,2.736,6.172,8.966,6.172,8.966S656.494,432.117,645.49,436.775Z" transform="translate(-605.748 -350.778)" fill="#2f2e41"/><path d="M664.759,453.276l-.932-6,.466-5.615,1.164,5.79.524,5.822Z" transform="translate(-609.704 -349.345)" fill="#2f2e41"/><path d="M563.579,614.346a9.1,9.1,0,0,0,.522,2.218c-2.552-1.211-4.161-4.518-4.161-4.518s-.048-.855-.12-2.247l2.129.879Z" transform="translate(-537.984 -490.037)" fill="#3f3d56"/><path d="M496.518,144.232l-10.531,10.411,3.786,33.8s-7.572,40.022-3.245,40.022,3.786.541,4.6-2.434S496.518,144.232,496.518,144.232Z" transform="translate(-478.957 -121.786)" fill="#d0cde1"/><path d="M465.092,190.16l-2.7.811a7.01,7.01,0,0,0-2.163,5.949c.27,4.056-.27,15.684-.27,15.684a7.129,7.129,0,0,0-.811,5.408l-3.786,25.961,8.383,1.352,2.975-13.521Z" transform="translate(-455.357 -158.113)" fill="#d0cde1"/><path d="M656.9,395.21s-3.245,17.037,0,15.955,7.3-12.98,4.6-14.873S656.9,395.21,656.9,395.21Z" transform="translate(-613.63 -320.166)" fill="#a0616a"/><path d="M520.334,48.749a3.657,3.657,0,0,1-.51-2.58,7.821,7.821,0,0,0,.223-2.325,23.017,23.017,0,0,1,1.338-3.377c.669-1.211.35-1.72,2.453-2.1s1.242-3.122,6.785-.159a1.626,1.626,0,0,0,1.688.637c1.147-.223,1.561,1.37,1.561,1.37s.764-.446,1.051.191,2.331-.382,2.331,3.918a17.806,17.806,0,0,1-2.326,8.142s.171-7.234-3.62-7.967-7.868-2.867-8.856-.127a20.884,20.884,0,0,1-2.118,4.38Z" transform="translate(-506.292 -36.844)" fill="#2f2e41"/><path d="M637.08,153.754s6.22-1.082,7.572,7.031,4.868,24.068,4.868,24.068l-.966,24.345-9.04-2.981.27-18.659-4.6-27.853Z" transform="translate(-597.598 -129.279)" fill="#d0cde1"/><path d="M618.145,490.79l3.261-.815,3.319.408v1.456l-3.027.932-3.552-.349Z" transform="translate(-573.57 -387.35)" fill="#2f2e41"/></svg>