<svg xmlns="http://www.w3.org/2000/svg" width="53.981" height="165.846" viewBox="0 0 53.981 165.846"><path d="M332.334,87.744h0c-6.47,0-11.18,4.393-12.768,10.665l-1.968,9.409H319l3.034-7.7-.639,7.7h1.572l1.167-3.968-.246,3.968h18.919v-9.6a10.473,10.473,0,0,0-10.473-10.473Z" transform="translate(-306.917 -87.744)" fill="#2f2e41"/><path d="M314.146,317.244s-9.57,13.305-9.1,18.674,6.536,92.9,6.536,92.9l14.239.7-4.2-63.024,3.5-17.04,8.637,79.364,17.507.467L335.621,326.347l-3.034-9.1Z" transform="translate(-297.28 -263.674)" fill="#2f2e41"/><path d="M335.866,143.244s3.034,5.6-.934,9.337-5.836,13.772-5.836,13.772l22.409-1.634-1.867-12.6s-4.9-3.035-3.735-8.4Z" transform="translate(-315.732 -130.29)" opacity="0.1"/><path d="M335.866,143.244s3.034,5.6-.934,9.337-5.836,13.772-5.836,13.772l22.409-1.634-1.867-12.6s-4.9-3.035-3.735-8.4Z" transform="translate(-316.432 -123.286)" opacity="0.1"/><path d="M335.866,143.244s3.034,5.6-.934,9.337-5.836,13.772-5.836,13.772l22.409-1.634-1.867-12.6s-4.9-3.035-3.735-8.4Z" transform="translate(-316.432 -128.422)" fill="#a0616a"/><path d="M339.031,207.244s1.4,4.2,7.47,3.735a20.826,20.826,0,0,0,10.271-3.735v27.31l-18.674-.7V217.281Z" transform="translate(-322.631 -179.35)" fill="#6c63ff"/><path d="M311.908,173.7,310.123,175l-10.737,5.135,3.735,19.374,2.568,4.2v5.135l-6.3,8.87a96.268,96.268,0,0,0-2.334,19.141c-.233,10.737,2.568,7.936,3.968,7.7s4.435-.934,4.435-.934l-4.9-22.875,8.17-11.9,1.4-4.668s-.467-10.971-2.334-15.406C307.789,188.768,311.358,177.077,311.908,173.7Z" transform="translate(-291.156 -153.638)" fill="#3f3d56"/><path d="M389.993,164.244l4.274,4.2,8.4,2.568L398.7,192.955l-2.334,4.668.467,4.668s8.747,9.382,10.037,28.011c.678,9.784-.723,9.317-.723,9.317l-17.25-.214-2.8-38.748,5.369-29.178Z" transform="translate(-359.427 -146.387)" fill="#3f3d56"/><path d="M459.556,404.244s2.334,10.037-2.334,11.2-3.034-11.2-3.034-11.2Z" transform="translate(-411.411 -330.366)" fill="#a0616a"/><path d="M289.825,359.613s8.988,5.04,6.7,9.276-10.323-5.309-10.323-5.309Z" transform="translate(-282.853 -296.154)" fill="#a0616a"/><path d="M440.564,193.711l3.5-.467s2.1,2.8,2.334,4.9,3.968,37.581,3.968,37.581L454.1,242.5s-.233,1.167-2.1,1.167h-1.867l-.7,2.8s-1.4-5.369-6.769-2.568l-2.1-.7,1.4-2.568s-1.4-12.371-1.4-18.207-.467-12.138-.467-12.138Z" transform="translate(-400.822 -168.618)" fill="#3f3d56"/><path d="M282.637,200.244l-2.568.233-5.836,22.642s-2.334,14.939-1.867,15.639a2.145,2.145,0,0,1-.467,2.334c-.467.467,1.867,7,4.2,6.769a6.972,6.972,0,0,0,3.268-.934s-2.1-6.069,3.268-8.17l1.4-4.668-1.4-7.7L284.5,215.65Z" transform="translate(-271.84 -173.984)" fill="#3f3d56"/><ellipse cx="0.35" cy="1.167" rx="0.35" ry="1.167" transform="translate(32.856 9.57)" fill="#a0616a"/><ellipse cx="0.35" cy="1.167" rx="0.35" ry="1.167" transform="translate(16.983 9.57)" fill="#a0616a"/><circle cx="7.703" cy="7.703" r="7.703" transform="translate(17.567 2.451)" fill="#a0616a"/><path d="M190.63,54.453l-.2,1.867h5.332l.7-1.4-.148,1.4h6.45l-4.435-7-9.8.233L186.2,56.321h3.5Z" transform="translate(-168.745 -48.385)" fill="#2f2e41"/></svg>