<svg xmlns="http://www.w3.org/2000/svg" width="604.129" height="432.367" viewBox="0 0 604.129 432.367"><path d="M1018.5,743.669l-.052,2.515-.14,7.474-38.441,16.523-25.962,11.157-1.093-3.661-1.16,4.572-58.784-22.3-.911-21.532v-.005l-.2-4.785,115.157-7.731,2.259,3.46.445.687Z" transform="translate(-429.83 -349.882)"/><path d="M981.084,349.091s-7.728,27.822-9.274,27.822,14.684,21.639,14.684,21.639l23.958,13.138,8.5-35.55s-7.728-19.321-6.182-29.367Z" transform="translate(-475.876 -184.06)" fill="#ffb8b8"/><circle cx="28.595" cy="28.595" r="28.595" transform="translate(488.978 118.661)" fill="#ffb8b8"/><path d="M960.015,409.571l-22.846-19.841-13.476,6.7-29.368,18.548s7.728,166.931,3.864,173.114c0,0,8.5,19.321,58.735,7.728s63.372-13.138,63.372-13.138l-10.82-102.013,13.138-64.145-44.131-30.86-13.831,23.9Z" transform="translate(-438.578 -202.808)" fill="#555"/><path d="M851.251,557.138s-11.592,36.323-3.091,40.187a26.591,26.591,0,0,0,15.457,2.318l13.138-31.686Z" transform="translate(-414.825 -285.457)" fill="#ffb8b8"/><path d="M1143.66,545.2l6.955,32.459v65.691s-10.047,41.733-17.775,30.913-7.569-14.246-7.569-14.246l9.887-15.122-4.637-61.826L1118.2,553.578Z" transform="translate(-546.487 -279.704)" fill="#ffb8b8"/><path d="M1013.876,246.7s-9.274-20.094-27.049-15.457-27.822,11.592-28.595,18.548.386,17.389.386,17.389,1.932-14.3,14.3-11.206,31.686.773,31.686.773l3.091,27.822s3.478-5.023,7.342-1.932S1026.24,252.885,1013.876,246.7Z" transform="translate(-469.253 -128.041)" fill="#2f2e41"/><path d="M1104.09,519.145l2.8,14.533,27.392-7.267L1129.249,513Z" transform="translate(-532.174 -247.265)" fill="#3f3d56"/><path d="M837.481,523.987l-4.367,14.141,27.59,6.465,1.868-14.206Z" transform="translate(-401.563 -252.563)"/><path d="M1107.028,442.257,1124.8,443.8s20.094,54.871,17.775,56.417-30.14,10.82-34,8.5S1107.028,442.257,1107.028,442.257Z" transform="translate(-540.769 -230.084)" fill="#555"/><path d="M879.519,443.8l-6.183-1.546s-11.592,14.684-15.457,31.686-9.274,34-6.183,34,30.913,10.82,30.913,10.82Z" transform="translate(-417.59 -230.084)" fill="#555"/><circle cx="5.59" cy="5.59" r="5.59" transform="translate(518.815 206.479)"/><path d="M1031.952,560.922l-59.708,18.823-24.372-77.3q34.51-4.839,59.708-18.823A218.967,218.967,0,0,0,1031.952,560.922Z" transform="translate(-464.388 -250.022)" fill="#e6e6e6"/><path d="M1021.157,577.109l-59.709,18.823-24.367-77.3q34.51-4.839,59.709-18.823A219.072,219.072,0,0,0,1021.157,577.109Z" transform="translate(-459.186 -257.824)" fill="#fff"/><path d="M857.668,584.129s-9.274,17-6.955,22.412,21.639,8.5,23.958,8.5,30.14-6.183,30.14-6.183,42.506-20.094,30.14-30.14S899.4,592.63,899.4,592.63H880.852l-10.047-6.955Z" transform="translate(-417.377 -294.673)" fill="#ffb8b8"/><rect width="101.009" height="45.152" transform="translate(0.518 69.843)" fill="#c6f2f9"/><rect width="17.039" height="16.187" transform="translate(350.144 216.48)"/><rect width="17.039" height="16.187" transform="translate(315.214 216.48)"/><rect width="17.891" height="17.891" transform="translate(385.073 182.402)" fill="#00c5e5"/><rect width="17.891" height="16.187" transform="translate(367.182 200.293)"/><rect width="17.891" height="16.187" transform="translate(332.253 200.293)"/><rect width="17.039" height="15.335" transform="translate(124.382 230.962)" fill="#00c5e5"/><rect width="17.891" height="16.187" transform="translate(281.989 214.776)"/><rect width="17.891" height="16.187" transform="translate(176.35 214.776)"/><rect width="17.039" height="17.891" transform="translate(159.311 196.885)"/><rect width="17.039" height="16.187" transform="translate(247.06 214.776)"/><rect width="17.891" height="17.891" transform="translate(229.169 196.885)"/><rect width="17.039" height="16.187" transform="translate(212.131 214.776)"/><rect width="17.891" height="16.187" transform="translate(141.421 214.776)"/><rect width="17.891" height="17.891" transform="translate(264.099 196.885)" fill="#00c5e5"/><path d="M670.727,342.508l-9.15-9.81,9.81-9.15,9.15,9.81Zm-7.691-9.759,7.742,8.3,8.3-7.742-7.742-8.3Z" transform="translate(-326.393 -172.866)"/><path d="M427.678,269.757H414.263V256.342h13.415Zm-12.383-1.032h11.351V257.374H415.295Z" transform="translate(-207.187 -140.473)"/><path d="M908.678,219.757H895.263V206.342h13.415Zm-12.383-1.032h11.351V207.374H896.295Z" transform="translate(-439.03 -116.373)" fill="#3f3d56"/><path d="M262.784,403.96l-.793-.774a40.5,40.5,0,0,0,8.122-14.21c2.7-8.112,4.012-20.923-5.023-35.888-9.245-15.312-9.661-27.748-8.382-35.485,1.392-8.418,4.942-13.137,5.092-13.334l.88.673a31.353,31.353,0,0,0-4.89,12.907c-1.233,7.54-.8,19.675,8.248,34.665,9.267,15.348,7.894,28.515,5.111,36.857A40.793,40.793,0,0,1,262.784,403.96Z" transform="translate(-130.99 -163.574)"/><path d="M532.784,335.96l-.793-.774a40.5,40.5,0,0,0,8.122-14.21c2.7-8.112,4.012-20.923-5.023-35.888-9.245-15.312-9.661-27.748-8.382-35.485,1.392-8.418,4.942-13.137,5.092-13.334l.88.673a31.353,31.353,0,0,0-4.89,12.907c-1.233,7.54-.8,19.675,8.248,34.666,9.267,15.348,7.894,28.515,5.111,36.857A40.794,40.794,0,0,1,532.784,335.96Z" transform="translate(-261.131 -130.798)"/><path d="M767.784,309.96l-.793-.774a40.5,40.5,0,0,0,8.122-14.21c2.7-8.112,4.012-20.923-5.023-35.888-9.245-15.312-9.661-27.748-8.382-35.485,1.392-8.418,4.942-13.137,5.092-13.334l.88.673a31.354,31.354,0,0,0-4.89,12.907c-1.233,7.54-.8,19.675,8.248,34.666,9.267,15.348,7.894,28.515,5.111,36.857A40.794,40.794,0,0,1,767.784,309.96Z" transform="translate(-374.401 -118.266)"/><rect width="48.749" height="1.108" transform="translate(26.648 84.095)" fill="#3f3d56"/><rect width="48.749" height="1.108" transform="translate(26.648 91.865)" fill="#3f3d56"/><rect width="48.749" height="1.108" transform="translate(26.648 99.635)" fill="#3f3d56"/><rect width="48.749" height="1.108" transform="translate(299.632 10.022)"/><rect width="48.749" height="1.108" transform="translate(299.632 17.792)"/><rect width="48.749" height="1.108" transform="translate(299.632 25.562)"/><rect width="48.749" height="1.108" transform="translate(414.11 181.997)" fill="#3f3d56"/><rect width="48.749" height="1.108" transform="translate(414.11 189.767)" fill="#3f3d56"/><rect width="48.749" height="1.108" transform="translate(414.11 197.537)" fill="#3f3d56"/><rect width="48.749" height="1.108" transform="translate(107.973 259.697)"/><rect width="48.749" height="1.108" transform="translate(107.973 267.467)"/><rect width="48.749" height="1.108" transform="translate(107.973 275.236)"/><path d="M152.36,105.69c8.423-18.893,21.117-31.321,37.731-36.939,12.335-4.171,26.6-4.565,42.4-1.172a113.384,113.384,0,0,1,33.127,12.868c54.847,31.831,88.755,32.114,107.542,26.746,20.6-5.885,28.139-19.7,28.213-19.834l.915.485c-.075.142-7.786,14.314-28.8,20.333-12.116,3.47-26.273,3.614-42.077.426-19.669-3.968-41.979-13.139-66.311-27.26a112.356,112.356,0,0,0-32.824-12.751c-25.912-5.566-60.646-3.574-78.967,37.52Z" transform="translate(-80.949 -48.389)"/><ellipse cx="18.317" cy="18.742" rx="18.317" ry="18.742" transform="translate(114.159 104.025)"/><circle cx="18.742" cy="18.742" r="18.742" transform="translate(254.727 71.651)"/><circle cx="18.742" cy="18.742" r="18.742" transform="translate(376.553 54.613)"/><path d="M130.013,200.707H14.5V141.655H130.013ZM15.536,199.671H128.977v-56.98H15.536Z" transform="translate(-14.5 -85.193)" fill="#3f3d56"/><rect width="101.009" height="45.152" transform="translate(146.075 30.993)" fill="#c6f2f9"/><rect width="48.749" height="1.108" transform="translate(172.205 45.246)"/><rect width="48.749" height="1.108" transform="translate(172.205 53.016)"/><rect width="48.749" height="1.108" transform="translate(170.651 59.232)"/><path d="M411.013,125.707H295.5V66.655H411.013Zm-114.477-1.036H409.977V67.691H296.536Z" transform="translate(-149.943 -49.043)" fill="#3f3d56"/><rect width="101.009" height="45.152" transform="translate(406.628 13.381)" fill="#c6f2f9"/><rect width="48.749" height="1.108" transform="translate(432.758 27.634)"/><rect width="48.749" height="1.108" transform="translate(432.758 35.404)"/><rect width="48.749" height="1.108" transform="translate(432.758 43.174)"/><path d="M914.013,91.707H798.5V32.655H914.013ZM799.536,90.671H912.977V33.691H799.536Z" transform="translate(-392.39 -32.655)" fill="#3f3d56"/></svg>